<svg xmlns="http://www.w3.org/2000/svg" xml:space="preserve" width="244.032mm" height="25.0964mm" version="1.1" style="shape-rendering:geometricPrecision; text-rendering:geometricPrecision; image-rendering:optimizeQuality; fill-rule:evenodd; clip-rule:evenodd"
     viewBox="0 0 25702.79 2643.29">
 <defs>
  <style type="text/css">
   <![CDATA[
    .fil1 {fill:#05A545}
    .fil0 {fill:#05A545;fill-rule:nonzero}
   ]]>
  </style>
 </defs>
    <g id="Слой_x0020_1">
  <metadata id="CorelCorpID_0Corel-Layer"/>
        <path class="fil0" d="M4072.35 1198.38l0 420.74 654.13 0c-82.17,236.68 -308.98,394.45 -617.98,391.17 -420.74,-3.29 -677.14,-318.85 -677.14,-690.29 0,-368.15 249.81,-677.15 667.28,-683.72 276.12,-6.57 486.49,138.06 578.53,341.86l519.36 0c-118.33,-466.77 -535.8,-805.35 -1094.6,-805.35 -700.15,0 -1147.2,525.94 -1147.2,1153.78 0,634.42 456.91,1143.92 1143.92,1143.92 716.59,0 1193.22,-552.24 1147.2,-1272.11l-1173.5 0zm3507.34 1226.08l-907.24 -2202.35 -519.37 0 -903.94 2202.35 512.78 0 180.8 -466.76 923.67 0 184.08 466.76 529.23 0zm-1176.79 -1640.26l299.12 762.61 -598.25 0 299.12 -762.61zm1916.38 -562.09c-427.33,0 -650.85,305.7 -650.85,621.26 0,253.11 157.78,512.79 496.35,594.96l788.91 187.36c101.9,23.01 147.92,95.33 147.92,167.65 0,88.75 -69.02,174.22 -184.08,174.22l-1163.63 0 0 456.9 1180.08 0c437.18,0 663.99,-315.55 663.99,-637.69 0,-259.68 -157.78,-525.94 -499.64,-604.83l-785.61 -184.08c-92.04,-23.01 -138.06,-95.33 -138.06,-164.35 0,-82.19 59.16,-157.79 177.5,-157.79l1101.18 0 0 -453.62 -1134.05 0zm1301.69 0l0 453.62 736.31 0 0 1748.74 470.06 0 0 -1748.74 739.59 0 0 -453.62 -1945.96 0zm2675.69 2202.35l0 -749.45 867.8 0c85.47,0 138.06,42.73 138.06,131.48l0 617.98 466.77 0 0 -703.44c0,-230.09 -92.04,-364.87 -269.55,-410.88l0 -9.86c134.77,-98.62 216.95,-253.11 216.95,-463.48 0,-397.74 -315.55,-614.69 -759.31,-614.69l-1127.48 0 0 2202.35 466.76 0zm0 -1748.74l627.84 0c184.08,0 325.42,108.47 325.42,285.98 0,184.08 -138.06,289.27 -328.72,289.27l-624.55 0 0 -575.24zm2853.21 1794.76c706.72,0 1160.35,-516.08 1160.35,-1143.92 0,-627.83 -456.91,-1153.78 -1160.35,-1153.78 -706.73,0 -1160.35,525.94 -1160.35,1153.78 0,627.83 453.62,1143.92 1160.35,1143.92zm0 -456.91c-427.33,0 -683.72,-322.14 -683.72,-690.29 0,-374.73 259.68,-690.29 683.72,-690.29 424.04,0 683.72,315.57 683.72,690.29 0,371.44 -259.68,690.29 -683.72,690.29z"/>
        <path class="fil1" d="M16590.17 0l9112.62 0 0 2643.29 -9112.62 0 0 -2643.29zm940.06 222.11c-427.32,0 -650.85,305.7 -650.85,621.26 0,253.11 157.79,512.79 496.36,594.96l788.91 187.36c101.9,23.01 147.92,95.33 147.92,167.65 0,88.75 -69.03,174.21 -184.08,174.21l-1163.63 0 0 456.91 1180.06 0c437.18,0 664,-315.55 664,-637.69 0,-259.69 -157.79,-525.94 -499.64,-604.83l-785.62 -184.08c-92.04,-23.01 -138.06,-95.33 -138.06,-164.36 0,-82.17 59.17,-157.78 177.5,-157.78l1101.19 0 0 -453.62 -1134.06 0zm2626.4 2248.37c706.72,0 1160.35,-516.07 1160.35,-1143.91 0,-627.83 -456.91,-1153.76 -1160.35,-1153.76 -706.73,0 -1160.36,525.93 -1160.36,1153.76 0,627.83 453.63,1143.91 1160.36,1143.91zm0 -456.9c-427.33,0 -683.72,-322.14 -683.72,-690.29 0,-374.73 259.68,-690.29 683.72,-690.29 424.03,0 683.71,315.57 683.71,690.29 0,371.44 -259.68,690.29 -683.71,690.29zm3149.04 -1791.47l-1682.99 0 0 2202.35 466.77 0 0 -851.35 1094.6 0 0 -433.9 -1094.6 0 0 -463.48 1216.22 0 0 -453.62zm174.22 0l0 453.62 736.31 0 0 1748.74 470.06 0 0 -1748.74 739.59 0 0 -453.62 -1945.96 0z"/>
        <path class="fil1" d="M-0 0l2643.3 0 0 2643.29 -2643.3 0 0 -2643.29zm669.26 173.81l1304.97 0c19.21,0 34.92,15.7 34.92,34.92l0 198.39c0,19.21 -15.7,34.92 -34.92,34.92l-1304.97 0c-19.21,0 -34.92,-15.7 -34.92,-34.92l0 -198.39c0,-19.21 15.7,-34.92 34.92,-34.92zm-102.44 1147.84c0,464.35 339.08,762.4 751.59,762.4 412.52,0 758.07,-300.21 758.07,-762.4 0,-464.34 -345.55,-762.39 -758.07,-762.39 -412.51,0 -751.59,298.05 -751.59,762.39zm300.2 0c0,-280.77 211.66,-449.22 453.55,-449.22 246.22,0 453.55,170.62 453.55,449.22 0,278.61 -207.33,449.23 -453.55,449.23 -244.05,0 -453.55,-170.63 -453.55,-449.23zm-197.85 879.91l1304.97 0c19.21,0 34.92,15.7 34.92,34.92l0 198.39c0,19.21 -15.7,34.92 -34.92,34.92l-1304.97 0c-19.21,0 -34.92,-15.7 -34.92,-34.92l0 -198.39c0,-19.21 15.7,-34.92 34.92,-34.92z"/>
 </g>
</svg>